<?xml version="1.0" encoding="iso-8859-1"?>
<!-- Uploaded to: SVG Repo, www.svgrepo.com, Generator: SVG Repo Mixer Tools -->
<svg height="800px" width="800px" version="1.1" id="Capa_1" xmlns="http://www.w3.org/2000/svg" xmlns:xlink="http://www.w3.org/1999/xlink" 
	 viewBox="0 0 346.548 346.548" xml:space="preserve">
<g>
	<path style="fill:#FFFFFF;" d="M148.501,194.266c2.686,0,5.235,0.586,7.544,1.617c-2.899-6.491-9.404-11.032-16.959-11.032
		c-10.242,0-18.575,8.333-18.575,18.576c0,7.555,4.541,14.06,11.032,16.958c-1.031-2.308-1.617-4.856-1.617-7.543
		C129.925,202.599,138.258,194.266,148.501,194.266z"/>
	<path style="fill:#FFA6BB;" d="M129.925,212.842c0,2.687,0.586,5.235,1.617,7.543v0.001c2.308,1.031,4.856,1.616,7.543,1.616
		c10.242,0,18.575-8.333,18.575-18.575c0-2.688-0.586-5.236-1.617-7.545c-2.309-1.031-4.856-1.616-7.543-1.616
		C138.258,194.266,129.925,202.599,129.925,212.842z"/>
	<path style="fill:#FFFFFF;" d="M217.064,194.266c2.687,0,5.235,0.586,7.544,1.617c-2.899-6.491-9.404-11.032-16.959-11.032
		c-10.242,0-18.575,8.333-18.575,18.576c0,7.555,4.541,14.06,11.032,16.958c-1.031-2.308-1.617-4.856-1.617-7.543
		C198.489,202.599,206.822,194.266,217.064,194.266z"/>
	<path style="fill:#FFA6BB;" d="M198.489,212.842c0,2.687,0.586,5.235,1.617,7.543v0.001c2.308,1.031,4.857,1.616,7.543,1.616
		c10.242,0,18.575-8.333,18.575-18.575c0-2.688-0.586-5.236-1.617-7.545c-2.309-1.031-4.856-1.616-7.543-1.616
		C206.822,194.266,198.489,202.599,198.489,212.842z"/>
	<path style="fill:#FFFFFF;" d="M217.064,262.74c2.687,0,5.235,0.586,7.544,1.617c-2.899-6.491-9.404-11.032-16.959-11.032
		c-10.242,0-18.575,8.333-18.575,18.576c0,7.555,4.541,14.06,11.032,16.958c-1.031-2.308-1.617-4.856-1.617-7.543
		C198.489,271.073,206.822,262.74,217.064,262.74z"/>
	<path style="fill:#FFA6BB;" d="M198.489,281.316c0,2.687,0.586,5.235,1.617,7.543v0c2.308,1.031,4.857,1.616,7.543,1.616
		c10.242,0,18.575-8.333,18.575-18.575c0-2.688-0.586-5.236-1.617-7.545c-2.309-1.031-4.856-1.616-7.543-1.616
		C206.822,262.74,198.489,271.073,198.489,281.316z"/>
	<path style="fill:#FFFFFF;" d="M148.501,262.74c2.686,0,5.235,0.586,7.544,1.617c-2.899-6.491-9.404-11.032-16.959-11.032
		c-10.242,0-18.575,8.333-18.575,18.576c0,7.555,4.541,14.06,11.032,16.958c-1.031-2.308-1.617-4.856-1.617-7.543
		C129.925,271.073,138.258,262.74,148.501,262.74z"/>
	<path style="fill:#FFA6BB;" d="M129.925,281.316c0,2.687,0.586,5.235,1.617,7.543v0c2.308,1.031,4.856,1.616,7.543,1.616
		c10.242,0,18.575-8.333,18.575-18.575c0-2.688-0.586-5.236-1.617-7.545c-2.309-1.031-4.856-1.616-7.543-1.616
		C138.258,262.74,129.925,271.073,129.925,281.316z"/>
	<path style="fill:#FFFFFF;" d="M87.484,242.664c0-51.769,42.116-93.885,93.884-93.885c16.52,0,32.054,4.295,45.554,11.818
		c-15.2-10.594-33.662-16.818-53.554-16.818c-51.768,0-93.884,42.116-93.884,93.885c0,35.248,19.528,66.015,48.33,82.066
		C103.456,302.752,87.484,274.54,87.484,242.664z"/>
	<path style="fill:none;" d="M173.368,143.779c-51.768,0-93.884,42.116-93.884,93.885c0,51.768,42.116,93.884,93.884,93.884
		c51.767,0,93.884-42.116,93.884-93.884C267.251,185.895,225.135,143.779,173.368,143.779z"/>
	<path style="fill:none;" d="M240.85,111.09c16.905-10.737,26.216-24.658,26.216-39.199c0-8.298-3.042-16.391-8.786-23.808
		c-4.322-5.582-10.171-10.782-17.43-15.393C222.887,21.283,198.856,15,173.181,15s-49.706,6.283-67.669,17.69
		c-16.905,10.737-26.216,24.658-26.216,39.2c0,12.333,6.721,24.212,19.069,34.089c2.211,1.768,4.58,3.479,7.146,5.11
		c17.963,11.407,41.994,17.689,67.669,17.689S222.887,122.497,240.85,111.09z"/>
	<path style="fill:none;" d="M87.484,242.664c0-51.769,42.116-93.885,93.884-93.885c16.52,0,32.053,4.294,45.552,11.817
		c-15.199-10.594-33.661-16.817-53.552-16.817c-51.768,0-93.884,42.116-93.884,93.885c0,35.247,19.527,66.014,48.329,82.065
		C103.455,302.751,87.484,274.54,87.484,242.664z"/>
	<path style="fill:#7F3960;" d="M216.821,137.837c11.768-3.364,22.631-8.09,32.07-14.085c21.394-13.587,33.175-32.005,33.175-51.861
		c0-19.857-11.781-38.275-33.175-51.862C228.555,7.113,201.667,0,173.181,0c-28.486,0-55.374,7.113-75.71,20.028
		C76.078,33.615,64.296,52.033,64.296,71.891c0,19.856,11.781,38.274,33.175,51.861c9.5,6.033,20.442,10.781,32.297,14.149
		c-38.396,16.846-65.284,55.221-65.284,99.764c0,60.038,48.845,108.884,108.884,108.884c60.039,0,108.884-48.846,108.884-108.884
		C282.251,193.064,255.294,154.648,216.821,137.837z M105.512,111.09c-2.566-1.63-4.936-3.342-7.146-5.11
		c-12.349-9.877-19.069-21.756-19.069-34.089c0-14.542,9.311-28.463,26.216-39.2C123.475,21.283,147.506,15,173.181,15
		s49.706,6.283,67.669,17.69c7.259,4.61,13.107,9.811,17.43,15.393c5.744,7.417,8.786,15.51,8.786,23.808
		c0,14.541-9.311,28.462-26.216,39.199c-17.963,11.407-41.994,17.689-67.669,17.689S123.475,122.497,105.512,111.09z
		 M79.484,237.664c0-51.769,42.116-93.885,93.884-93.885c19.891,0,38.352,6.223,53.552,16.817
		c24.358,16.978,40.332,45.19,40.332,77.068c0,51.768-42.116,93.884-93.884,93.884c-16.521,0-32.055-4.295-45.555-11.819
		C99.011,303.678,79.484,272.911,79.484,237.664z"/>
	<path style="fill:#FFA6BB;" d="M258.28,48.083c-2.211-1.767-4.578-3.479-7.145-5.108c-17.963-11.407-41.994-17.69-67.669-17.69
		c-9.726,0-19.212,0.906-28.224,2.646c5.738-0.788,11.737-1.215,17.938-1.215c4.143,0,7.5,3.358,7.5,7.5c0,4.142-3.357,7.5-7.5,7.5
		c-36.2,0-61.428,15.902-61.428,30.176c0,4.142-3.357,7.5-7.5,7.5s-7.5-3.358-7.5-7.5c0-7.475,2.942-14.464,8.163-20.614
		c-9.967,9.198-15.335,19.868-15.335,30.899c0,8.296,3.042,16.388,8.784,23.805c2.211,1.768,4.58,3.479,7.146,5.11
		c17.963,11.407,41.994,17.689,67.669,17.689s49.706-6.282,67.669-17.689c16.905-10.737,26.216-24.658,26.216-39.199
		C267.066,63.593,264.024,55.5,258.28,48.083z"/>
	<path style="fill:none;" d="M134.227,32.863c4.062-1.397,8.359-2.592,12.88-3.533C142.586,30.271,138.29,31.466,134.227,32.863z"/>
	<path style="fill:#FFFFFF;" d="M240.85,32.69C222.887,21.283,198.856,15,173.181,15s-49.706,6.283-67.669,17.69
		c-16.905,10.737-26.216,24.658-26.216,39.2c0,12.333,6.721,24.213,19.07,34.09c-5.743-7.417-8.785-15.509-8.785-23.806
		c0-11.031,5.368-21.7,15.333-30.897c0.001-0.001,0.002-0.002,0.002-0.002c6.555-7.721,16.746-14.092,29.311-18.414
		c4.062-1.397,8.359-2.592,12.88-3.533c0.09-0.019,0.183-0.033,0.272-0.051c2.557-0.526,5.178-0.979,7.859-1.348
		c9.014-1.74,18.501-2.646,28.228-2.646c25.675,0,49.706,6.283,67.669,17.69c2.566,1.63,4.935,3.341,7.146,5.109
		C253.958,42.502,248.11,37.301,240.85,32.69z"/>
	<path style="fill:#7F3960;" d="M134.227,32.863c-12.564,4.321-22.756,10.692-29.311,18.414c0,0-0.001,0.001-0.002,0.002
		c-5.219,6.15-8.161,13.138-8.161,20.612c0,4.142,3.357,7.5,7.5,7.5s7.5-3.358,7.5-7.5c0-14.273,25.227-30.176,61.428-30.176
		c4.143,0,7.5-3.358,7.5-7.5c0-4.143-3.357-7.5-7.5-7.5c-6.201,0-12.2,0.428-17.938,1.215c-2.684,0.368-5.305,0.822-7.863,1.348
		c-0.09,0.018-0.183,0.033-0.272,0.051C142.586,30.271,138.29,31.466,134.227,32.863z"/>
	<path style="fill:#BA82AA;" d="M226.919,160.596c-13.499-7.523-29.032-11.817-45.552-11.817c-51.768,0-93.884,42.116-93.884,93.885
		c0,31.876,15.972,60.087,40.329,77.065c13.5,7.524,29.033,11.819,45.555,11.819c51.767,0,93.884-42.116,93.884-93.884
		C267.251,205.787,251.278,177.574,226.919,160.596z M139.085,305.477c-18.514,0-33.575-15.061-33.575-33.575
		c0-18.514,15.062-33.576,33.575-33.576c18.514,0,33.575,15.062,33.575,33.576C172.661,290.415,157.599,305.477,139.085,305.477z
		 M139.085,237.002c-18.514,0-33.575-15.062-33.575-33.575c0-18.514,15.062-33.576,33.575-33.576
		c18.514,0,33.575,15.062,33.575,33.576C172.661,221.94,157.599,237.002,139.085,237.002z M207.649,169.851
		c18.514,0,33.575,15.062,33.575,33.576c0,18.514-15.062,33.575-33.575,33.575s-33.575-15.062-33.575-33.575
		C174.074,184.913,189.135,169.851,207.649,169.851z M207.649,305.477c-18.514,0-33.575-15.061-33.575-33.575
		c0-18.514,15.061-33.576,33.575-33.576s33.575,15.062,33.575,33.576C241.224,290.415,226.163,305.477,207.649,305.477z"/>
	<path style="fill:#7F3960;" d="M139.085,169.851c-18.514,0-33.575,15.062-33.575,33.576c0,18.514,15.062,33.575,33.575,33.575
		c18.514,0,33.575-15.062,33.575-33.575C172.661,184.913,157.599,169.851,139.085,169.851z M120.51,203.427
		c0-10.243,8.333-18.576,18.575-18.576c7.556,0,14.06,4.541,16.958,11.031c1.031,2.309,1.617,4.857,1.617,7.545
		c0,10.242-8.333,18.575-18.575,18.575c-2.687,0-5.235-0.585-7.543-1.616C125.052,217.487,120.51,210.982,120.51,203.427z"/>
	<path style="fill:#7F3960;" d="M139.085,238.325c-18.514,0-33.575,15.062-33.575,33.576c0,18.514,15.062,33.575,33.575,33.575
		c18.514,0,33.575-15.061,33.575-33.575C172.661,253.388,157.599,238.325,139.085,238.325z M139.085,290.477
		c-10.242,0-18.575-8.333-18.575-18.575c0-10.243,8.333-18.576,18.575-18.576s18.575,8.333,18.575,18.576
		C157.661,282.143,149.328,290.477,139.085,290.477z"/>
	<path style="fill:#7F3960;" d="M207.649,237.002c18.514,0,33.575-15.062,33.575-33.575c0-18.514-15.062-33.576-33.575-33.576
		s-33.575,15.062-33.575,33.576C174.074,221.94,189.135,237.002,207.649,237.002z M207.649,184.851
		c10.242,0,18.575,8.333,18.575,18.576c0,10.242-8.333,18.575-18.575,18.575s-18.575-8.333-18.575-18.575
		C189.074,193.184,197.407,184.851,207.649,184.851z"/>
	<path style="fill:#7F3960;" d="M207.649,238.325c-18.514,0-33.575,15.062-33.575,33.576c0,18.514,15.061,33.575,33.575,33.575
		s33.575-15.061,33.575-33.575C241.224,253.388,226.163,238.325,207.649,238.325z M207.649,290.477
		c-10.242,0-18.575-8.333-18.575-18.575c0-10.243,8.333-18.576,18.575-18.576s18.575,8.333,18.575,18.576
		C226.224,282.143,217.891,290.477,207.649,290.477z"/>
</g>
</svg>